<svg xmlns="http://www.w3.org/2000/svg" width="880" height="620" viewBox="0 0 880 620" fill="none">
<rect width="880" height="620" rx="42" fill="#F8FAFC"/><circle cx="685" cy="130" r="78" fill="#DBEAFE"/><circle cx="198" cy="450" r="112" fill="#DCFCE7"/>
<rect x="96" y="88" width="688" height="444" rx="34" fill="white" stroke="#E2E8F0" stroke-width="3"/>
<rect x="144" y="136" width="250" height="34" rx="17" fill="#0F172A"/><rect x="144" y="194" width="592" height="18" rx="9" fill="#E2E8F0"/><rect x="144" y="232" width="520" height="18" rx="9" fill="#E2E8F0"/>
<rect x="144" y="298" width="168" height="148" rx="24" fill="#EFF6FF"/><path d="M180 392h96M180 358h74M180 324h96" stroke="#2563EB" stroke-width="12" stroke-linecap="round"/>
<rect x="356" y="298" width="168" height="148" rx="24" fill="#F0FDF4"/><path d="M398 400c34-4 58-27 68-68" stroke="#16A34A" stroke-width="12" stroke-linecap="round"/><circle cx="398" cy="400" r="12" fill="#16A34A"/>
<rect x="568" y="298" width="168" height="148" rx="24" fill="#FFF7ED"/><path d="M608 400l36-68 52 68" stroke="#EA580C" stroke-width="12" stroke-linecap="round" stroke-linejoin="round"/>
</svg>