<svg xmlns="http://www.w3.org/2000/svg" viewBox="0 0 820 620"><defs><linearGradient id="bg" x1="0" y1="0" x2="1" y2="1"><stop stop-color="#0b1220"/><stop offset="1" stop-color="#113b73"/></linearGradient><filter id="s"><feDropShadow dx="0" dy="22" stdDeviation="24" flood-opacity=".22"/></filter></defs><rect width="820" height="620" rx="44" fill="url(#bg)"/><circle cx="690" cy="95" r="150" fill="#2563eb" opacity=".25"/><circle cx="120" cy="520" r="170" fill="#14b8a6" opacity=".16"/><g filter="url(#s)"><rect x="82" y="78" width="656" height="110" rx="28" fill="#fff" opacity=".96"/><rect x="118" y="116" width="320" height="16" rx="8" fill="#0f172a"/><rect x="118" y="146" width="470" height="12" rx="6" fill="#64748b" opacity=".5"/><circle cx="670" cy="133" r="28" fill="#2563eb"/></g><g filter="url(#s)"><rect x="82" y="238" width="306" height="250" rx="32" fill="#fff"/><rect x="118" y="284" width="78" height="78" rx="22" fill="#dbeafe"/><path d="M222 294h105M222 326h78M118 398h222M118 432h178" stroke="#0f172a" stroke-width="14" stroke-linecap="round" opacity=".72"/></g><g filter="url(#s)"><rect x="432" y="238" width="306" height="250" rx="32" fill="#fff"/><rect x="468" y="284" width="78" height="78" rx="22" fill="#dcfce7"/><path d="M572 294h105M572 326h78M468 398h222M468 432h178" stroke="#0f172a" stroke-width="14" stroke-linecap="round" opacity=".72"/></g><path d="M110 552h600" stroke="#fff" stroke-opacity=".18" stroke-width="2"/><path d="M140 552c90-70 160-50 230-5s132 34 220-20" stroke="#60a5fa" stroke-width="8" fill="none" stroke-linecap="round"/></svg>